<mxfile host="app.diagrams.net" modified="2021-08-22T01:32:51.913Z" agent="5.0 (Windows)" etag="ZjzC_I_BZmd9EYCMWyu4" version="14.9.8" type="github">
  <diagram id="z91trodNijBtFUweNDGZ" name="Page-1">
    <mxGraphModel dx="1359" dy="780" grid="1" gridSize="10" guides="1" tooltips="1" connect="1" arrows="1" fold="1" page="1" pageScale="1" pageWidth="1920" pageHeight="1200" math="0" shadow="0">
      <root>
        <mxCell id="0" />
        <mxCell id="1" parent="0" />
        <mxCell id="rzku4YO41YiB_5-XMC_n-1" value="&lt;div&gt;&lt;b&gt;&lt;font style=&quot;font-size: 24px&quot;&gt;（I）&lt;/font&gt;&lt;/b&gt;&lt;/div&gt;&lt;div&gt;&lt;b&gt;&lt;font size=&quot;3&quot;&gt;Lock&lt;/font&gt;&lt;/b&gt;&lt;br&gt;&lt;/div&gt;" style="rounded=0;whiteSpace=wrap;html=1;" vertex="1" parent="1">
          <mxGeometry x="290" y="130" width="120" height="60" as="geometry" />
        </mxCell>
        <mxCell id="rzku4YO41YiB_5-XMC_n-2" value="&lt;div&gt;&lt;b&gt;&lt;font style=&quot;font-size: 24px&quot;&gt;（C）&lt;/font&gt;&lt;/b&gt;&lt;/div&gt;&lt;div&gt;&lt;b&gt;&lt;font size=&quot;3&quot;&gt;ReentrantLock&lt;/font&gt;&lt;/b&gt;&lt;br&gt;&lt;/div&gt;" style="rounded=0;whiteSpace=wrap;html=1;" vertex="1" parent="1">
          <mxGeometry x="290" y="270" width="120" height="60" as="geometry" />
        </mxCell>
        <mxCell id="rzku4YO41YiB_5-XMC_n-4" value="&lt;div&gt;&lt;b&gt;&lt;font style=&quot;font-size: 24px&quot;&gt;（A）&lt;/font&gt;&lt;/b&gt;&lt;/div&gt;&lt;div&gt;&lt;b&gt;&lt;font size=&quot;3&quot;&gt;AbstractOwnableSynchronizer&lt;/font&gt;&lt;/b&gt;&lt;br&gt;&lt;/div&gt;" style="rounded=0;whiteSpace=wrap;html=1;" vertex="1" parent="1">
          <mxGeometry x="610" y="50" width="310" height="60" as="geometry" />
        </mxCell>
        <mxCell id="rzku4YO41YiB_5-XMC_n-5" value="&lt;div&gt;&lt;b&gt;&lt;font style=&quot;font-size: 24px&quot;&gt;（A）&lt;/font&gt;&lt;/b&gt;&lt;/div&gt;&lt;div&gt;&lt;b&gt;&lt;font size=&quot;3&quot;&gt;AbstractQueuedSynchronizer&lt;/font&gt;&lt;/b&gt;&lt;br&gt;&lt;/div&gt;" style="rounded=0;whiteSpace=wrap;html=1;" vertex="1" parent="1">
          <mxGeometry x="610" y="160" width="310" height="60" as="geometry" />
        </mxCell>
        <mxCell id="rzku4YO41YiB_5-XMC_n-6" value="&lt;div&gt;&lt;b&gt;&lt;font style=&quot;font-size: 24px&quot;&gt;（A）&lt;/font&gt;&lt;/b&gt;&lt;/div&gt;&lt;div&gt;&lt;b&gt;&lt;font size=&quot;3&quot;&gt;$.Sync&lt;/font&gt;&lt;/b&gt;&lt;br&gt;&lt;/div&gt;" style="rounded=0;whiteSpace=wrap;html=1;" vertex="1" parent="1">
          <mxGeometry x="610" y="270" width="310" height="60" as="geometry" />
        </mxCell>
        <mxCell id="rzku4YO41YiB_5-XMC_n-8" value="" style="endArrow=classic;html=1;dashed=1;strokeWidth=3;entryX=0;entryY=0.5;entryDx=0;entryDy=0;exitX=1;exitY=0.5;exitDx=0;exitDy=0;" edge="1" parent="1" source="rzku4YO41YiB_5-XMC_n-2" target="rzku4YO41YiB_5-XMC_n-6">
          <mxGeometry width="50" height="50" relative="1" as="geometry">
            <mxPoint x="360" y="470" as="sourcePoint" />
            <mxPoint x="410" y="420" as="targetPoint" />
          </mxGeometry>
        </mxCell>
        <mxCell id="rzku4YO41YiB_5-XMC_n-9" value="" style="endArrow=classic;html=1;strokeWidth=3;entryX=0.5;entryY=1;entryDx=0;entryDy=0;" edge="1" parent="1" source="rzku4YO41YiB_5-XMC_n-2" target="rzku4YO41YiB_5-XMC_n-1">
          <mxGeometry width="50" height="50" relative="1" as="geometry">
            <mxPoint x="190" y="410" as="sourcePoint" />
            <mxPoint x="240" y="360" as="targetPoint" />
          </mxGeometry>
        </mxCell>
        <mxCell id="rzku4YO41YiB_5-XMC_n-10" value="" style="endArrow=classic;html=1;strokeWidth=3;entryX=0.5;entryY=1;entryDx=0;entryDy=0;exitX=0.5;exitY=0;exitDx=0;exitDy=0;" edge="1" parent="1" source="rzku4YO41YiB_5-XMC_n-6" target="rzku4YO41YiB_5-XMC_n-5">
          <mxGeometry width="50" height="50" relative="1" as="geometry">
            <mxPoint x="360" y="280" as="sourcePoint" />
            <mxPoint x="360" y="200" as="targetPoint" />
          </mxGeometry>
        </mxCell>
        <mxCell id="rzku4YO41YiB_5-XMC_n-11" value="" style="endArrow=classic;html=1;strokeWidth=3;" edge="1" parent="1" source="rzku4YO41YiB_5-XMC_n-5" target="rzku4YO41YiB_5-XMC_n-4">
          <mxGeometry width="50" height="50" relative="1" as="geometry">
            <mxPoint x="775" y="280" as="sourcePoint" />
            <mxPoint x="775" y="230" as="targetPoint" />
          </mxGeometry>
        </mxCell>
        <mxCell id="rzku4YO41YiB_5-XMC_n-12" value="&lt;div&gt;&lt;b&gt;&lt;font style=&quot;font-size: 24px&quot;&gt;（C）&lt;/font&gt;&lt;/b&gt;&lt;/div&gt;&lt;div&gt;&lt;b&gt;&lt;font size=&quot;3&quot;&gt;$.NonfaireSync&lt;/font&gt;&lt;/b&gt;&lt;/div&gt;" style="rounded=0;whiteSpace=wrap;html=1;" vertex="1" parent="1">
          <mxGeometry x="570" y="410" width="120" height="60" as="geometry" />
        </mxCell>
        <mxCell id="rzku4YO41YiB_5-XMC_n-13" value="&lt;div&gt;&lt;b&gt;&lt;font style=&quot;font-size: 24px&quot;&gt;（C）&lt;/font&gt;&lt;/b&gt;&lt;/div&gt;&lt;div&gt;&lt;b&gt;&lt;font size=&quot;3&quot;&gt;$.FaireSync&lt;/font&gt;&lt;/b&gt;&lt;/div&gt;" style="rounded=0;whiteSpace=wrap;html=1;" vertex="1" parent="1">
          <mxGeometry x="830" y="410" width="120" height="60" as="geometry" />
        </mxCell>
        <mxCell id="rzku4YO41YiB_5-XMC_n-14" value="" style="endArrow=classic;html=1;strokeWidth=3;exitX=0.5;exitY=0;exitDx=0;exitDy=0;entryX=0.5;entryY=1;entryDx=0;entryDy=0;edgeStyle=orthogonalEdgeStyle;" edge="1" parent="1" source="rzku4YO41YiB_5-XMC_n-12" target="rzku4YO41YiB_5-XMC_n-6">
          <mxGeometry width="50" height="50" relative="1" as="geometry">
            <mxPoint x="775" y="280" as="sourcePoint" />
            <mxPoint x="760" y="340" as="targetPoint" />
          </mxGeometry>
        </mxCell>
        <mxCell id="rzku4YO41YiB_5-XMC_n-15" value="" style="endArrow=classic;html=1;strokeWidth=3;exitX=0.5;exitY=0;exitDx=0;exitDy=0;entryX=0.5;entryY=1;entryDx=0;entryDy=0;edgeStyle=orthogonalEdgeStyle;" edge="1" parent="1" source="rzku4YO41YiB_5-XMC_n-13" target="rzku4YO41YiB_5-XMC_n-6">
          <mxGeometry width="50" height="50" relative="1" as="geometry">
            <mxPoint x="640" y="420" as="sourcePoint" />
            <mxPoint x="775" y="340" as="targetPoint" />
          </mxGeometry>
        </mxCell>
      </root>
    </mxGraphModel>
  </diagram>
</mxfile>
